<?xml version="1.0" encoding="UTF-8" standalone="no"?>
<!-- Created with Inkscape (http://www.inkscape.org/) -->

<svg
   width="300"
   height="179.31941"
   viewBox="0 0 60 35.863882"
   version="1.1"
   id="svg5"
   xml:space="preserve"
   xmlns="http://www.w3.org/2000/svg"
   xmlns:svg="http://www.w3.org/2000/svg"
   xmlns:rdf="http://www.w3.org/1999/02/22-rdf-syntax-ns#"
   xmlns:cc="http://creativecommons.org/ns#"
   xmlns:dc="http://purl.org/dc/elements/1.1/"><title
     id="title18346">Bangladesh Nationalist Party - বাংলাদেশ জাতীয়তাবাদী দল</title><defs
     id="defs2" /><g
     id="layer1"
     transform="translate(-36.548222,-39.496844)"><g
       id="g12934"
       transform="matrix(0.3,0,0,0.3,50.863367,33.346844)"><path
         id="rect342"
         style="fill:#fb0b0c;fill-rule:evenodd;stroke-width:2.8627;stop-color:#000000"
         d="M -47.717149,20.5 H 152.28285 V 86.050582 H -47.717149 Z" /><path
         id="rect398"
         style="fill:#168a37;fill-rule:evenodd;stroke-width:4.57466;stop-color:#000000"
         d="M -47.717149,86.041861 H 152.28285 V 140.04627 H -47.717149 Z" /><g
         id="g12926"
         transform="translate(-2.7256503e-5)"><path
           style="font-variation-settings:normal;opacity:1;fill:#000000;fill-opacity:1;fill-rule:evenodd;stroke-width:0.2;stroke-linecap:butt;stroke-linejoin:miter;stroke-miterlimit:4;stroke-dasharray:none;stroke-dashoffset:0;stroke-opacity:1;stop-color:#000000;stop-opacity:1"
           d="m 31.912148,53.317577 c 0.0987,0.018 0.190164,0.07544 0.251171,0.167579 l 4.601172,6.948828 c 0.0058,0.0088 0.01795,0.01165 0.02695,0.0062 2.631147,-1.591093 5.491596,-2.767466 8.48086,-3.4875 0.01815,-0.0044 0.03603,0.0068 0.04023,0.025 l 2.33125,10.103515 c 0.0042,0.01819 -0.0069,0.03652 -0.025,0.04102 -8.707023,2.143946 -14.832587,9.949539 -14.842187,18.919531 -7.8e-5,10.772996 8.73325,19.50618 19.506249,19.50625 10.772994,-7e-5 19.505935,-8.733254 19.505859,-19.50625 -0.0096,-8.969985 -6.134776,-16.775583 -14.841796,-18.919531 -0.01809,-0.0045 -0.02959,-0.02284 -0.02539,-0.04102 l 2.334375,-10.117187 c 0.0042,-0.01822 0.02249,-0.0294 0.04063,-0.025 2.990779,0.720682 5.852633,1.898033 8.484765,3.490625 0.009,0.0055 0.02135,0.0029 0.02695,-0.0059 l 4.59414,-6.938671 c 0.122019,-0.18427 0.366771,-0.229487 0.545313,-0.09922 4.586336,3.34633 8.558926,7.374962 11.839843,12.171093 0.124789,0.182413 0.07236,0.426108 -0.115234,0.542969 L 77.8141,70.372265 c -0.0091,0.0056 -0.01185,0.01756 -0.0062,0.02656 1.612329,2.630884 2.808183,5.495108 3.545312,8.491406 0.0025,0.01052 0.01312,0.01694 0.02344,0.01484 l 8.153906,-1.657422 c 0.216586,-0.04402 0.421359,0.09726 0.455469,0.315625 0.876833,5.609245 0.837451,11.266816 -0.233985,16.978125 -0.04075,0.217223 -0.249953,0.352363 -0.465234,0.302344 L 81.4016,93.012108 c -0.01025,-0.0024 -0.02025,0.0042 -0.02305,0.01445 -0.719576,2.998781 -1.897844,5.868176 -3.49375,8.507032 -0.0052,0.009 -0.0025,0.021 0.0062,0.027 l 6.948828,4.60117 c 0.18428,0.12202 0.2291,0.36638 0.09883,0.54492 -3.346343,4.58636 -7.374967,8.55932 -12.171094,11.84023 -0.182414,0.12478 -0.426105,0.0724 -0.542968,-0.11523 l -4.280078,-6.8707 c -0.0056,-0.009 -0.01756,-0.0123 -0.02656,-0.006 -2.629229,1.61162 -5.491565,2.80742 -8.485937,3.54492 -0.01052,0.002 -0.01694,0.0131 -0.01484,0.0234 l 1.660156,8.16718 c 0.04402,0.21658 -0.09723,0.42118 -0.315625,0.45508 -2.813792,0.4368 -5.639861,0.61289 -8.478906,0.61289 -2.839046,0 -5.66513,-0.17609 -8.478906,-0.61289 -0.218392,-0.0339 -0.359254,-0.2385 -0.315234,-0.45508 l 1.660156,-8.16718 c 0.0021,-0.0103 -0.0046,-0.0204 -0.01484,-0.0234 -2.994377,-0.7375 -5.856707,-1.9333 -8.485937,-3.54492 -0.009,-0.006 -0.02096,-0.003 -0.02656,0.006 l -4.280468,6.8707 c -0.116862,0.18753 -0.360166,0.24001 -0.542578,0.11523 -4.796142,-3.28091 -8.824763,-7.25387 -12.171094,-11.84023 -0.13027,-0.17854 -0.08545,-0.4229 0.09883,-0.54492 l 6.948828,-4.60117 c 0.0088,-0.006 0.01126,-0.018 0.0059,-0.027 -1.595907,-2.638856 -2.77417,-5.508251 -3.49375,-8.507032 -0.0025,-0.01003 -0.01279,-0.01655 -0.02305,-0.01445 l -7.885156,1.831641 c -0.21528,0.05001 -0.424485,-0.08512 -0.465235,-0.302344 -1.071438,-5.711309 -1.110814,-11.36888 -0.233984,-16.978125 0.03413,-0.218365 0.238887,-0.359645 0.455469,-0.315625 l 8.167187,1.660156 c 0.01032,0.0021 0.02055,-0.0046 0.02305,-0.01484 0.737382,-2.994451 1.932974,-5.856998 3.544531,-8.486328 0.0055,-0.009 0.0026,-0.02057 -0.0063,-0.02617 l -6.870312,-4.280469 c -0.187584,-0.116866 -0.240019,-0.360556 -0.115235,-0.542969 3.280906,-4.796132 7.253883,-8.824762 11.840235,-12.171093 0.08927,-0.06513 0.195047,-0.08636 0.29375,-0.06836 z"
           id="path12914" /><path
           id="path12727"
           style="font-variation-settings:normal;display:inline;opacity:1;fill:#f5eb0d;fill-opacity:1;fill-rule:evenodd;stroke-width:0.2;stroke-linecap:butt;stroke-linejoin:miter;stroke-miterlimit:4;stroke-dasharray:none;stroke-dashoffset:0;stroke-opacity:1;stop-color:#000000;stop-opacity:1"
           d="m 41.450429,37.40039 c -0.10602,0.422025 -0.07354,0.581733 -0.01602,0.840235 -0.684339,-0.285832 -1.207007,-0.628152 -2.994922,-0.527735 0.565085,1.836406 1.864421,2.538667 3.662891,2.854688 0.723435,0.127119 1.722648,3.439472 2.520703,4.201562 0.110961,0.105953 -0.116075,0.258943 -0.215625,0.164063 -0.291727,-0.278071 -0.609141,-0.496686 -0.766797,-1.028516 -0.38706,-1.305693 -1.137329,-2.607133 -2.753516,-3.392578 -0.716302,-0.348113 -1.332999,-0.688809 -2.383203,-0.655469 -1.260916,-1.164311 -2.526325,-2.262756 -3.985937,-0.50625 0.471047,0.65685 1.47091,1.230133 2.294922,1.83125 -3.008605,-0.656264 -4.182311,0.868083 -5.246094,2.523047 0.233302,0.188794 0.509226,0.250014 0.792188,0.289844 -0.547779,1.274498 -0.647479,2.265881 -0.655079,3.199218 1.599734,-0.02002 2.711652,-1.670389 3.976172,-4.220312 0.532304,-1.073402 1.92398,-2.178003 4.68086,-0.304297 0.837618,0.569286 0.98248,1.671586 3.073828,2.132813 0.0947,0.02089 0.06158,0.163343 -0.03047,0.152343 -1.975734,-0.236024 -4.009011,-0.91524 -5.682422,1.035938 -2.410115,-0.418438 -2.130802,1.072011 -3.230078,2.407031 -1.664598,2.02158 -2.150406,2.736562 -1.447266,5.0125 1.274537,-0.72738 1.221225,-2.210789 2.047657,-3.322266 0.961647,-1.293326 2.002209,-1.864076 3.585546,-1.928906 1.398239,-0.05726 1.987916,-2.053938 2.79961,-2.376953 1.912773,-0.761189 3.014335,0.141755 4.158203,0.905078 -0.385664,0.101273 -0.865077,-0.189269 -1.109375,0.3875 -0.769231,-0.307698 -1.691435,-1.22105 -3.501172,0.204688 0.502979,0.887826 1.230343,1.731989 2.746875,1.885547 0.617148,0.06249 1.199664,-0.234094 1.734375,1.055468 0.37874,0.913397 0.905533,1.701356 2.019922,2.111719 0.361361,0.13307 0.284912,0.520393 0.264062,0.786328 -0.957051,-1.110686 -2.102988,-1.649318 -3.533593,-1.325 0.635537,1.118584 0.901967,2.432755 2.725781,2.757813 0.793692,0.141457 1.12396,0.765196 1.367968,1.551171 0.046,0.148135 -0.201586,0.321511 -0.285546,0.140235 -0.836112,-1.805171 -2.566575,-1.809301 -4.13125,-2.14375 0.39976,1.172062 1.044236,2.213051 2.41289,3.878125 0.916782,1.115338 0.961749,2.698346 1.064844,4.16289 0.227048,3.225478 0.795225,4.593711 1.538672,5.583594 0.665153,0.885642 0.532204,2.585353 0.714844,3.945703 0.303871,2.263375 2.272414,1.181723 2.70625,5.306641 0.217506,2.068078 0.811684,4.873078 1.129687,7.242968 0.137984,1.028341 1.178352,0.783049 1.082422,-0.150781 -0.234496,-2.282607 -1.312975,-4.814206 -0.253906,-7.334375 1.259304,-2.996644 0.313763,-4.982716 0.861718,-5.764844 0.69737,-0.995401 1.076975,-2.16402 1.071875,-3.466406 -0.0042,-1.024472 0.670742,-2.563846 1.157813,-3.991406 0.363055,-1.064068 0.479184,-1.987472 0.533594,-2.781641 -0.248063,-0.0742 -0.505068,-0.133096 -0.894141,0.03242 0.627855,-0.8476 1.123678,-2.551619 1.283984,-3.562109 -0.43005,-0.302013 -1.921018,-0.04323 -1.499609,-0.201172 1.450242,-0.543587 2.373154,-1.754349 2.496875,-2.964453 -0.36058,-0.295453 -1.728867,-0.07786 -1.098438,-0.457812 1.40219,-0.845046 0.993976,-1.883598 1.400391,-2.582032 1.664539,-0.145613 1.564538,-1.029864 2.496094,-1.948046 -1.324968,-0.855962 -2.40869,-0.710565 -3.360938,0.204687 -0.102722,-0.40402 -0.270647,-0.622952 -0.458984,-0.784375 -2.040077,1.96807 -2.083732,3.140987 -2.805078,4.482812 -0.157285,0.29258 -0.401929,0.01756 -0.317969,-0.15625 1.028942,-2.130062 1.795747,-4.420712 4.600781,-5.378124 0.526921,-0.179852 1.822393,-0.118973 2.002735,0.08359 1.842419,2.06942 2.779712,1.812254 3.880078,1.967578 1.867855,0.263662 2.791363,1.611529 3.410546,2.816407 0.504673,0.98205 1.023654,1.421113 2.102344,1.653125 -0.0533,-1.477936 -0.182592,-3.238713 -1.432031,-3.892578 -1.133567,-0.593238 -0.926723,-0.982014 -1.340625,-1.622266 -1.168379,-1.807361 -2.36715,-1.005876 -2.810937,-1.234375 -1.642941,-0.84592 -2.88679,-1.083549 -4.296094,-0.563672 -0.631059,0.232797 -1.092598,0.119736 -1.523438,0.05352 0.739369,-0.590219 1.566325,-1.090715 2.079297,-2.186328 0.128654,-0.274785 0.590283,-0.591335 1.260547,-0.839063 0.461635,-0.170613 0.912057,-0.498089 1.367578,-0.707422 0.698966,-0.321217 1.26875,-0.08285 1.729297,0.350391 0.634531,0.596932 0.958613,1.226315 1.860156,1.876172 0.793958,2.382345 2.2738,2.506644 3.075781,2.496484 0.164722,-1.18944 -0.344342,-2.041843 -0.914062,-2.864062 0.468546,0.06506 0.575485,-0.07942 0.792187,-0.160157 0.05009,-0.335878 -1.044074,-3.025942 -4.877343,-2.409375 -0.260537,0.04191 -0.458922,-0.01154 -0.560156,-0.124218 0.709075,-0.497516 1.294512,-1.159799 1.885156,-1.815235 -1.271143,-1.124517 -2.456978,-0.79108 -3.565625,0.867188 -0.487092,0.04398 -3.380347,0.839295 -4.487109,3.78125 -0.259769,0.690527 -0.403366,1.352337 -0.753907,1.896093 -0.08553,0.132694 -0.08803,0.05219 -0.08633,0.02148 0.05888,-1.064734 0.06219,-2.887918 1.809766,-4.503125 2.036763,-0.372358 3.066821,-1.817492 3.113281,-3.280078 -1.1265,-0.16327 -2.129961,-0.142976 -2.914063,0.920703 0.0087,-0.473244 -0.13417,-0.567594 -0.23164,-0.775391 -3.468757,2.439923 -1.761328,3.052691 -2.326563,4.190625 -1.335542,2.688683 -1.437485,3.757577 -1.585156,4.955078 -0.292308,0.497917 -0.59346,0.964604 -0.807422,1.736719 -0.05951,-0.132678 -0.183629,-0.14611 -0.137109,-0.517969 0.203818,-1.629493 0.759033,-3.055783 0.472266,-5.012109 0.921914,-1.109372 2.012156,-1.882247 2.041406,-4.776953 -1.325721,0.933268 -2.966899,1.526988 -2.88711,3.657031 0.0341,0.911313 -0.291084,1.270549 -0.673437,2.23125 -0.609109,1.530444 -0.0066,2.563702 -0.263672,3.672266 l -0.24375,1.051172 -1.216406,-2.482813 c -0.404769,-0.82608 0.386437,-1.310087 0.710937,-1.906641 0.741528,-1.36322 0.833726,-2.664644 1.098828,-3.996874 -0.880644,0.417504 -1.657682,1.022618 -2.248828,1.964843 -0.05029,0.08012 -0.127229,0.08033 -0.174609,-0.0016 -0.934826,-1.616275 -1.697436,-2.69108 -4.179687,-3.744531 -0.245219,2.280159 1.268506,3.016231 2.316796,4.502734 0.05229,0.07415 0.115157,0.185171 0.110157,0.275781 -0.06733,1.225944 0.111849,2.287602 0.24414,3.380469 0.03464,0.286132 -0.07388,0.571164 -0.280468,0.807422 -0.06645,0.07599 -0.158102,0.0532 -0.194532,-0.04102 -0.58984,-1.525595 -1.312617,-3.185246 -1.410547,-4.373437 -0.01476,-0.179144 -0.07235,-0.457172 -0.149218,-0.619922 -0.610896,-1.293372 -1.174123,-2.421438 -1.33711,-3.260156 -0.299235,-1.539853 -1.460487,-2.20162 -2.798046,-2.729297 -0.112482,1.611106 0.298889,2.599172 1.296875,3.305078 0.526717,0.372566 1.147993,0.830353 0.918359,2.682812 -0.13024,1.050597 0.706435,2.066317 1.196875,2.978906 0.174327,0.324386 0.162837,0.815175 0.129297,1.357032 -1.021131,-1.210216 -1.424323,-2.077609 -1.766797,-3.500781 -0.428297,-1.779818 -1.161328,-3.545359 -2.154688,-5.074219 -0.657622,-1.01213 -0.554349,-1.953996 -2.623046,-2.531641 z m -2.022266,1.063672 c 1.439283,0.0341 1.907784,0.607295 2.170703,1.294922 -0.881793,-0.07092 -1.646754,-0.395003 -2.170703,-1.294922 z m 3.072656,0.60625 c 1.029337,0.637378 1.446126,1.430621 1.691406,2.267578 -0.938478,-0.466632 -1.801111,-1.063357 -1.691406,-2.267578 z m -6.374609,0.05391 c 0.597156,-0.0027 1.017023,0.380068 1.451172,0.732422 -0.724465,0.034 -1.469661,0.232268 -2.084375,-0.598047 0.233215,-0.09319 0.442359,-0.13346 0.633203,-0.134375 z m 9.175,0.219532 c 0.867055,0.306365 1.18598,0.929202 1.336719,1.649218 C 46.00693,40.673354 45.35895,40.374991 45.30121,39.34375 Z m 17.307031,0.628515 c -0.507324,0.801955 -1.146768,1.489844 -2.208985,1.59961 0.307984,-0.731705 0.867185,-1.50755 2.208985,-1.59961 z m 3.59375,0.29336 c 0.09597,-7e-5 0.197738,0.0063 0.30625,0.01914 -0.42911,0.605289 -0.964948,1.056518 -1.828125,1.035938 0.292723,-0.57192 0.672877,-1.05447 1.521875,-1.055078 z M 38.787147,40.52891 c 0.0064,-3.5e-5 0.01273,-3.5e-5 0.01914,0 0.451629,0.0022 0.857333,0.173015 1.071484,0.55039 -0.717588,0.170223 -1.293328,0.0106 -1.702343,-0.452343 0.204089,-0.06296 0.412282,-0.09698 0.611718,-0.09805 z m 2.194922,0.707812 c 0.84026,0.723148 1.521318,1.489007 1.409375,2.467969 -0.536907,-0.812354 -1.865554,-1.502831 -1.409375,-2.467969 z m 18.517969,0.08398 c 0.20408,0.333789 -0.352068,1.138377 -0.753907,1.847265 -0.320246,-0.294702 0.400813,-1.174393 0.753907,-1.847265 z m -2.578516,0.07227 c 0.0063,0.94142 -0.3723,1.552814 -0.936719,1.938672 0.06795,-0.676777 0.01393,-1.399454 0.936719,-1.938672 z m -8.028906,0.124219 c 0.622903,0.32151 1.476457,0.83126 1.310547,1.78125 -0.506696,-0.368957 -1.373077,-0.885238 -1.310547,-1.78125 z m 15.285937,0.325 c 0.01779,0 0.03545,2.32e-4 0.05234,3.91e-4 -0.478114,0.764254 -1.143581,0.982104 -1.874219,1.008984 0.265651,-0.884626 1.268879,-1.008917 1.821875,-1.009375 z m -29.161718,0.277734 c 0.01353,-1.02e-4 0.027,-4.3e-5 0.04062,0 0.05815,2e-4 0.117013,0.0015 0.176953,0.0043 -0.379064,0.809423 -1.168508,1.285803 -2.008984,1.120313 0.289798,-0.818763 0.93926,-1.118128 1.791406,-1.12461 z M 61.418006,42.9375 c -0.03181,0.826641 -0.04571,1.886986 -1.357422,2.434765 -0.08119,-0.978571 0.388292,-1.777568 1.357422,-2.434765 z m 6.48086,0.279296 c 0.492237,-0.0021 0.979597,0.304818 1.464062,0.792579 -0.825281,0.195417 -1.421476,-0.136898 -1.917578,-0.7 0.151662,-0.06228 0.302824,-0.09197 0.453516,-0.09258 z m -23.141016,0.04922 c 0.307924,0.635233 0.971161,1.269624 0.6625,1.917969 -0.246974,-0.638836 -1.074828,-1.218422 -0.6625,-1.917969 z m 2.708985,0.242578 c 0.464655,0.796089 0.906456,1.591408 0.667968,2.359375 -0.383378,-0.404785 -1.180965,-1.340015 -0.667968,-2.359375 z m 6.057421,0.466797 c -0.137745,0.654363 -0.279638,1.721223 -1.028515,2.102344 -0.02999,-0.411698 0.169902,-1.774512 1.028515,-2.102344 z m -2.232031,0.24375 c 0.427773,0.78817 0.411873,1.10572 0.339063,1.363281 -0.228447,-0.371317 -0.746127,-0.534023 -0.339063,-1.363281 z m -17.317968,0.01133 c -0.234737,0.923247 -0.642221,1.560377 -1.335938,1.723438 0.04531,-0.75634 0.347261,-1.395891 1.335938,-1.723438 z m 34.949218,1.048828 c 0.0067,-5.9e-5 0.01327,-5e-5 0.01992,0 1.107955,0.0072 1.295909,1.042995 1.523437,1.509766 -0.819484,-0.227761 -1.20462,-0.875363 -1.605078,-1.508203 0.02078,-7.78e-4 0.04151,-0.0014 0.06172,-0.0016 z m -10.723828,0.244532 c -0.336916,0.585445 -0.353139,1.719195 -1.069531,1.690625 0.343491,-0.597991 0.325944,-1.665715 1.069531,-1.690625 z m -18.149609,0.26875 c -0.339522,0.892188 -0.973626,1.670868 -2.052344,1.680468 0.207933,-0.976192 1.224019,-1.579572 2.052344,-1.680468 z m 15.264843,0.301562 c 0.198673,0.788572 -0.01568,1.44802 -0.26914,2.095313 -0.120692,-0.681254 -0.291867,-1.35841 0.26914,-2.095313 z m -18.15703,0.646484 c -0.319898,0.800146 -0.754696,1.398753 -1.614844,1.667969 0.213376,-0.820078 0.751439,-1.376034 1.614844,-1.667969 z m 14.241015,0.353907 c 0.455755,0.524967 0.348052,0.99381 0.205859,1.458984 -0.168029,-0.423092 -0.623581,-0.663988 -0.205859,-1.458984 z m 11.521484,0.144922 c 0.954186,0.159841 1.643482,0.672951 2.079688,1.523437 -0.666814,-0.222351 -1.784652,-0.357433 -2.079688,-1.523437 z m -16.507031,0.213281 c 0.741017,0.871359 1.198413,1.515212 1.797656,2.810937 -0.617502,-0.08897 -1.105642,-1.578167 -1.797656,-2.810937 z m -3.130469,0.08047 c 0.0074,-9.7e-5 0.01487,5e-6 0.02227,0 0.421908,-3.04e-4 0.791548,0.146589 1.11875,0.413671 -0.803455,0.393179 -1.308051,0.237599 -1.880078,-0.26914 0.262782,-0.09476 0.508768,-0.141543 0.739062,-0.144531 z m 2.208594,0.498437 c 0.75083,0.372554 1.046773,0.902074 0.944531,1.569141 -0.571017,-0.323832 -0.921491,-0.819106 -0.944531,-1.569141 z m 20.770312,0.02344 c 0.0066,-4.5e-5 0.01333,-4.6e-5 0.01992,0 0.644305,0.0044 1.201684,0.433936 1.664453,1.324609 -0.483761,0.133467 -1.77164,-0.803504 -1.9875,-1.292578 0.103177,-0.02052 0.204029,-0.03136 0.303125,-0.03203 z m -17.405078,0.263671 c 0.883045,1.336824 0.817782,1.803062 0.522657,2.046875 -0.16752,-0.668606 -1.166304,-1.497883 -0.522657,-2.046875 z m 11.852344,0.958985 c 0.07389,8.8e-5 0.136237,0.0028 0.174219,0.0094 -0.228584,0.804383 -1.324739,1.15072 -1.874219,0.721094 0.242168,-0.320829 0.392947,-0.710185 1.064453,-0.708985 0.08778,1.13e-4 0.413868,-0.02175 0.635547,-0.02148 z m -26.529296,0.803125 c -0.209878,0.911509 -0.385165,1.954549 -0.819141,2.018359 -0.04128,-0.752682 0.220585,-1.42817 0.819141,-2.018359 z m 17.644921,0.0098 c 0.198151,0.663099 0.24005,1.335542 -0.274609,2.041407 -0.106057,-0.75544 -0.408874,-1.585446 0.274609,-2.041407 z m 0.910156,0.124219 c 0.448164,0.896091 0.134687,1.683212 -0.204687,2.466797 -0.163847,-0.780877 -0.407948,-1.547261 0.204687,-2.466797 z m 4.783203,0.06445 c 0.01898,0.551658 0.02644,1.281316 -0.641015,1.400391 0.112545,-0.486391 0.108181,-0.995348 0.641015,-1.400391 z m -10.868749,0.235547 c 0.795339,0.0756 1.307067,0.488508 1.668359,1.169531 -0.463658,0.04845 -1.514154,-0.194285 -1.668359,-1.169531 z m 7.960156,0.233203 c 0.08975,0.556846 0.06274,1.631096 -0.775782,2.208203 -0.268184,-1.2734 0.373625,-1.618549 0.775782,-2.208203 z m 3.711328,0.204688 c 0.235506,0.291579 0.379974,0.65167 -0.247656,1.59414 -0.48539,-0.531453 0.04951,-1.062685 0.247656,-1.59414 z m 10.955859,0.08594 c 0.730408,0.236569 1.248823,0.961955 1.158203,1.734375 -0.738347,-0.267586 -1.05283,-0.915654 -1.158203,-1.734375 z m -19.848828,0.183203 c 0.424316,0.455762 0.3307,0.829778 0.220703,1.201172 -0.152023,-0.346101 -0.578014,-0.502448 -0.220703,-1.201172 z m -4.029297,1.142969 c 1.018589,7.68e-4 1.385164,0.653331 1.68125,1.258203 -0.641235,-0.145414 -1.354806,-0.237346 -1.755859,-1.257031 0.02523,-7.96e-4 0.05013,-0.0012 0.07461,-0.0012 z m 3.124219,0.182031 c 1.395993,0.804231 2.301273,3.533027 2.033594,4.847266 -0.461844,-1.552618 -0.892364,-2.912431 -2.033594,-4.847266 z m 7.853516,0.791797 c -0.0729,0.559158 -0.345784,1.074156 -1.152735,1.109766 0.115939,-0.516783 0.435,-0.922533 1.152735,-1.109766 z m -5.208594,0.3125 c 0.138388,0.633519 0.657856,1.143979 -0.02188,2.041406 -0.02877,-0.67738 -0.689035,-1.300264 0.02188,-2.041406 z m 3.230859,0.122266 c 0.143413,0.943975 -0.06098,1.292127 -0.424609,1.323437 0.08397,-0.48462 -0.151044,-1.175431 0.424609,-1.323437 z m -1.308593,0.0055 c 0.296027,0.451365 0.602723,0.901476 0.205859,1.432031 -0.04632,0.0602 -0.524956,-0.998162 -0.205859,-1.432031 z m -0.877344,0.47539 c 0.308383,0.247693 0.358615,0.58999 0.366015,0.948047 -0.200723,-0.249879 -0.578097,-0.351034 -0.366015,-0.948047 z m 4.771484,0.11875 c 0.0038,-6.2e-5 0.0079,2.9e-5 0.01172,0 0.01193,-7.6e-5 0.02398,-2.34e-4 0.03633,0 -0.103434,0.449135 -0.37857,0.589413 -0.735156,0.582813 0.08334,-0.300265 0.201737,-0.574928 0.687109,-0.582813 z m -8.385937,0.02148 c 0.734492,0.882115 0.615162,1.263326 0.447265,1.589062 -0.246854,-0.538394 -0.926106,-1.115462 -0.447265,-1.589062 z m 9.787109,0.333984 c -0.171419,0.35252 -0.291587,0.753871 -0.807813,0.775391 0.04256,-0.349262 0.130294,-0.680121 0.807813,-0.775391 z m -13.385156,0.231641 c 0.762772,0.104787 1.403734,0.53028 1.465234,1.475781 -0.54248,-0.375606 -1.189558,-0.526545 -1.465234,-1.475781 z m 10.371484,0.399609 c -0.424868,0.481617 -0.797926,1.015123 -0.952344,1.767187 -0.372044,-1.325113 0.286149,-1.550468 0.952344,-1.767187 z m -3.21875,0.266797 c 0.0053,-6.6e-5 0.01076,0 0.01602,0 0.556551,-0.0011 0.665625,0.370877 0.830078,0.696484 -0.381794,-0.04311 -0.73852,-0.163767 -0.964063,-0.689844 0.04149,-0.0039 0.08061,-0.0062 0.117969,-0.0066 z m -3.286719,0.94414 c 0.797174,0.287136 0.973019,0.966988 1.005469,1.73711 -0.585324,-0.329656 -0.931759,-0.714273 -1.005469,-1.73711 z m 2.971094,0.517969 c 0.259651,0.295814 0.216064,0.591687 0.114063,0.8875 -0.152203,-0.217022 -0.370734,-0.388166 -0.114063,-0.8875 z m 3.343359,0.516016 c 0.02718,0.20413 0.100893,0.412727 -0.129296,0.592578 -0.130463,-0.249894 -0.0036,-0.422161 0.129296,-0.592578 z m 1.051954,0.360156 c 0.231903,0.578869 0.07368,1.06375 -0.282032,1.500781 -0.153566,-0.518412 -0.244073,-1.032341 0.282032,-1.500781 z m -2.511719,0.2 c 0.304889,0.547414 0.172834,1.06301 -0.107813,1.567578 -0.245357,-0.566596 -0.371503,-1.114652 0.107813,-1.567578 z m -0.910547,0.01641 c 0.218879,0.684848 0.297885,1.373899 -0.118359,2.078906 -0.495612,-0.680602 -0.34764,-1.423946 0.118359,-2.078906 z m -1.514062,0.06562 c 0.414781,0.33783 0.487683,0.764498 0.396093,1.233985 -0.227026,-0.368507 -0.649109,-0.64899 -0.396093,-1.233985 z m 6.071093,0.128125 c 0.05825,0.409323 -0.01559,0.730756 -0.301562,0.910547 -0.183,-0.597102 0.102125,-0.709532 0.301562,-0.910547 z m -8.539062,0.146094 c 0.962404,0.636836 1.47384,1.613719 1.279687,3.123047 -1.079958,-0.745481 -0.977374,-2.025774 -1.279687,-3.123047 z m 6.497656,0.822656 c 0.06121,0.605334 -0.04047,1.17359 -0.605469,1.6375 -0.208855,-0.763359 -0.04856,-1.33097 0.605469,-1.6375 z m -4.826172,0.857422 c 0.587279,0.182206 0.789871,0.547372 0.737891,1.033984 -0.308321,-0.218155 -0.740591,-0.18447 -0.737891,-1.033984 z m 1.276563,0.216406 c 0.995232,0.530534 0.552843,1.555192 0.728125,2.411719 -0.901903,-0.291459 -0.603312,-1.515285 -0.728125,-2.411719 z m 3.923046,0.285938 c 0.01228,0.741307 -0.189001,0.957237 -0.438281,1.054687 -0.0057,-0.438349 0.02443,-0.856067 0.438281,-1.054687 z M 48.2266,60.98203 c 0.662617,0.379576 0.854858,0.971163 0.786328,1.680469 C 48.506819,62.252434 48.1744,61.735651 48.2266,60.98203 Z m 5.320703,0.128907 c 0.56451,0.253773 1.051583,0.578078 0.925391,1.4625 -0.07485,-0.01939 -0.145509,-0.04293 -0.212109,-0.07031 4.61e-4,0.442614 -0.167084,0.830861 -0.626172,1.123828 0.0059,-0.46123 -0.08467,-0.955863 0.374609,-1.260156 -0.34826,-0.246059 -0.516209,-0.659144 -0.461719,-1.255859 z m 2.295703,0.765234 c 0.241473,0.292311 0.20829,0.589194 0.02695,0.888672 -0.144954,-0.224258 -0.351825,-0.415663 -0.02695,-0.888672 z m -5.902734,1.245703 c 0.942482,0.993307 0.812388,2.131539 0.502735,2.810938 -0.378379,-0.475058 -1.031226,-1.366431 -0.502735,-2.810938 z m 1.576953,0.133203 c 0.381444,0.272725 0.563625,0.584662 0.327344,0.978907 -0.188181,-0.272845 -0.465344,-0.48541 -0.327344,-0.978907 z m 5.229297,0.106641 c 0.09307,0.402944 0.07783,1.141414 -0.803516,1.337109 0.05093,-0.501028 0.276082,-0.957753 0.803516,-1.337109 z m -1.561719,0.584375 c -0.005,0.374516 -0.0062,0.669094 -0.526953,0.994922 -0.05966,-0.405032 0.06311,-0.700631 0.526953,-0.994922 z m -6.455859,0.318359 c 0.535517,0.59665 0.761513,1.655991 0.396094,2.498438 -0.280585,-0.439102 -1.19206,-1.155135 -0.396094,-2.498438 z m 2.521484,0.190625 c 0.505566,0.381 0.709278,0.846735 0.635938,1.390235 -0.377238,-0.284638 -0.852352,-0.463286 -0.635938,-1.390235 z m 2.30586,0.93086 c 0.379234,0.190232 0.688133,0.415921 0.589843,0.939453 -0.321668,-0.135266 -0.566543,-0.244754 -0.589843,-0.939453 z m -2.194922,1.257421 c 0.931381,1.494067 0.645637,2.093223 0.291016,2.375391 -0.200806,-0.823143 -0.999483,-1.757155 -0.291016,-2.375391 z m -1.066406,0.280079 c 0.539915,0.722639 0.875853,2.042389 0.35,2.515234 -0.23021,-0.65514 -1.173591,-1.87617 -0.35,-2.515234 z m 3.949218,0.2875 c 0.003,-5.6e-5 0.006,3e-6 0.009,0 0.09266,-1e-4 0.184292,0.02474 0.276562,0.03594 -0.266599,0.447061 -0.54158,0.804285 -0.868359,0.609375 0.205312,-0.531919 0.39593,-0.641808 0.582812,-0.645312 z m 1.432032,0.496875 c -0.309965,0.267799 -0.337851,0.811965 -1.104688,0.632031 0.210324,-0.45095 0.668728,-0.52443 1.104688,-0.632031 z m -2.03086,0.723437 c 0.373518,0.197896 0.407288,0.407407 0.360938,0.619531 C 53.770013,68.9551 53.56354,68.830847 53.64535,68.431249 Z m -0.65039,0.274219 c 0.518967,0.400984 0.399495,2.525254 0.167578,3.176562 -0.274094,-0.586384 -0.761241,-1.24321 -0.167578,-3.176562 z m -2.632422,1.934375 c 1.120767,0.923015 1.217892,1.649088 0.996094,2.31289 -0.346366,-0.528864 -1.567568,-1.194964 -0.996094,-2.31289 z m 3.611328,0.133984 c 0.434474,0.179458 0.593626,0.531495 0.510156,1.035938 -0.252535,-0.191746 -0.478016,-0.433462 -0.510156,-1.035938 z m -1.790234,1.096875 c 0.369222,0.100918 0.310661,0.40476 0.251171,0.647266 -0.178309,-0.149113 -0.328101,-0.317978 -0.251171,-0.647266 z m 2.192968,2.007422 c 0.05165,0.328264 -0.0052,0.607269 -0.226172,0.728906 -0.07386,-0.197294 0.0021,-0.608866 0.226172,-0.728906 z m -1.692968,0.466797 c 0.01159,-4e-5 0.02269,0.0105 0.02109,0.04375 -0.04521,0.950827 0.265623,2.064126 0.388672,2.9625 0.01308,0.0956 -0.02043,0.149867 -0.0375,0.0918 -0.267465,-0.909439 -0.505862,-1.930898 -0.396875,-3.078125 10e-4,-0.0094 0.01299,-0.01992 0.02461,-0.01992 z" /><path
           style="font-variation-settings:normal;opacity:1;fill:#ffffff;fill-opacity:1;fill-rule:evenodd;stroke-width:0.2;stroke-linecap:butt;stroke-linejoin:miter;stroke-miterlimit:4;stroke-dasharray:none;stroke-dashoffset:0;stroke-opacity:1;stop-color:#000000;stop-opacity:1"
           d="m 52.28285,28.727734 a 0.08694499,0.08694499 0 0 1 0.08242,0.05977 l 1.323438,4.008203 a 0.17536735,0.17536735 0 0 0 0.165625,0.120312 l 4.221093,0.01992 a 0.08694499,0.08694499 0 0 1 0.05078,0.157031 l -3.403125,2.496875 a 0.17536738,0.17536738 0 0 0 -0.06328,0.194922 l 1.285547,4.020313 a 0.08694498,0.08694498 0 0 1 -0.133594,0.09727 l -3.426562,-2.465234 a 0.17536735,0.17536735 0 0 0 -0.204687,0 l -3.426563,2.465234 a 0.086945,0.086945 0 0 1 -0.133594,-0.09727 l 1.285547,-4.020313 a 0.17536738,0.17536738 0 0 0 -0.06328,-0.194922 L 46.43949,33.09297 a 0.08694499,0.08694499 0 0 1 0.05078,-0.157031 l 4.221094,-0.01992 a 0.17536737,0.17536737 0 0 0 0.165625,-0.120312 L 52.200428,28.7875 a 0.08694499,0.08694499 0 0 1 0.08242,-0.05977 z"
           id="path12921" /></g></g></g><metadata
     id="metadata683"><rdf:RDF><cc:Work
         rdf:about=""><cc:license
           rdf:resource="http://creativecommons.org/publicdomain/zero/1.0/" /><dc:title>Bangladesh Nationalist Party - বাংলাদেশ জাতীয়তাবাদী দল</dc:title></cc:Work><cc:License
         rdf:about="http://creativecommons.org/publicdomain/zero/1.0/"><cc:permits
           rdf:resource="http://creativecommons.org/ns#Reproduction" /><cc:permits
           rdf:resource="http://creativecommons.org/ns#Distribution" /><cc:permits
           rdf:resource="http://creativecommons.org/ns#DerivativeWorks" /></cc:License></rdf:RDF></metadata></svg>
